<svg width="263" height="201" viewBox="0 0 263 201" fill="none" xmlns="http://www.w3.org/2000/svg">
<path d="M142.022 84.7737C141.508 94.2061 140.89 105.662 140.89 105.662C141.825 108.691 142.219 111.86 142.056 115.026C148.23 115.883 157.388 124.287 161.058 129.054C166.752 136.429 171.691 146.273 175.121 158.758C178.551 171.243 182.084 176.936 183.764 176.868C185.445 176.799 188.018 174.398 189.39 168.533C190.762 162.668 190.693 157.248 190.933 152.172C191.036 150.183 190.659 146.787 192.168 145.209C192.634 144.762 193.216 144.453 193.848 144.318L193.54 144.249C193.54 144.249 192.236 134.679 194.74 132.656C194.909 132.511 195.093 132.384 195.289 132.278L195.118 131.215V126.825C188.944 123.292 186.028 114.889 189.492 108.646V105.731C187.792 106.203 186.062 106.558 184.313 106.794C179.683 107.446 174.847 107.24 170.456 105.25C166.375 103.398 162.876 100.483 159.446 97.4645C155.879 94.2747 152.346 90.9819 148.402 88.3409C146.373 86.9849 144.24 85.7922 142.022 84.7737Z" fill="#1C294A" fill-opacity="0.2"/>
<path d="M68.244 109.298C68.102 109.328 67.964 109.374 67.8324 109.435C68.4497 112.659 68.827 115.712 68.827 115.712C73.3203 115.506 76.0299 121.028 71.7425 127.717C76.2014 128.437 78.4652 134.062 79.5628 139.687C82.2424 133.421 86.2711 127.823 91.3618 123.292C93.9685 120.994 97.1241 119.588 100.245 118.181C103.984 116.501 110.775 114.992 110.775 114.992C113.759 111.15 114.377 105.971 115.063 101.066C115.509 97.9447 115.577 94.7891 116.023 91.7022C116.126 91.1534 116.195 90.4331 116.263 89.6785L116.195 89.6442C116.003 89.7981 115.759 89.87 115.515 89.8443C115.271 89.8186 115.046 89.6973 114.891 89.507C114.857 89.4727 114.857 89.4384 114.823 89.4041C114.095 87.9944 113.52 86.5112 113.108 84.9795H113.176C111.427 84.6708 109.541 83.8476 108.992 81.9268C100.177 84.2935 92.8023 89.5413 85.9082 95.8181C82.1695 99.2138 78.4995 102.712 74.4865 105.696C72.5657 107.206 70.542 108.578 68.244 109.298Z" fill="#1C294A" fill-opacity="0.2"/>
<path d="M260.081 115.129C258.915 110.087 257.474 104.805 254.524 100.62C251.575 96.4355 247.562 93.7259 243 92.1138C233.705 88.8553 223.792 91.3249 214.908 94.9606C215.518 95.3137 216.083 95.7398 216.589 96.2297C217.255 96.8866 217.755 97.6929 218.048 98.5817C218.34 99.4705 218.416 100.416 218.27 101.34L218.51 101.409C221.528 102.232 222.249 104.633 221.803 107.24L222.043 107.308C224.787 107.789 225.164 110.978 224.581 113.825L225.301 114.134C227.188 115.883 226.913 120.136 225.164 121.954C224.442 122.674 223.473 123.091 222.454 123.12L222.626 123.601C221.871 127.236 219.264 128.848 216.829 129.157L216.521 133.822C217.016 134.074 217.487 134.373 217.927 134.714C219.676 136.12 219.093 139.31 219.093 141.608V149.085L218.407 148.948C224.821 153.167 223.209 160.198 223.483 165.274C223.804 169.959 223.746 174.662 223.312 179.337L237.306 179.166L245.606 179.063C248.213 179.029 250.991 179.303 253.53 178.788C256.376 178.205 257.577 175.873 258.4 173.095C259.155 170.557 259.841 167.984 260.39 165.377C261.579 159.84 262.359 154.223 262.722 148.571C263.508 137.354 262.618 126.083 260.081 115.129Z" fill="#1C294A" fill-opacity="0.2"/>
<path d="M41.2504 171.243C40.5987 166.475 38.232 162.016 37.9576 157.111C37.8205 153.438 37.9236 149.761 38.2663 146.101C38.7122 140.716 39.3639 136.154 42.4166 131.455C43.0654 130.458 43.8248 129.538 44.6803 128.711C44.6803 128.711 40.2214 113.62 41.9021 112.659C41.5909 112.569 41.2916 112.442 41.0103 112.282C38.3684 113.408 35.8414 114.786 33.4644 116.398C25.4726 121.817 19.2301 129.877 15.1142 139.07C13.0294 143.741 11.4317 148.614 10.3466 153.613C9.3176 158.277 8.28862 163.457 8.63161 168.327C8.9746 173.472 11.4099 177.862 16.1432 179.269C18.4755 179.955 20.9794 179.817 23.3804 179.852L31.7494 179.92L40.1185 179.989C40.8045 176.868 41.6277 173.849 41.2504 171.243Z" fill="#1C294A" fill-opacity="0.2"/>
<path d="M216.075 200.5C215.824 200.5 215.581 200.422 215.377 200.277C215.173 200.132 215.02 199.927 214.939 199.69C214.857 199.454 214.852 199.198 214.923 198.958C214.994 198.718 215.138 198.507 215.335 198.353C216.307 197.595 217.555 195.853 218.175 194.203C217.639 194.396 217.078 194.506 216.509 194.531C213.883 194.64 213.368 193.027 213.272 192.529C212.961 190.912 214.299 188.926 216.135 188.28C216.786 188.044 217.495 188.02 218.161 188.211C218.827 188.402 219.416 188.798 219.843 189.343C220.673 187.705 221.132 185.691 221.45 184.298C221.573 183.755 221.68 183.291 221.781 182.947C222.513 180.384 222.979 177.62 222.283 165.379C222.224 164.384 222.236 163.314 222.249 162.201C222.307 157.556 222.368 152.752 217.274 149.706C213.76 147.602 209.092 147.108 204.577 146.632C202.728 146.436 200.909 146.243 199.199 145.948L198.31 145.793C196.5 145.463 194.02 145.013 193.031 146.043C192.163 146.951 192.158 149.184 192.154 150.814C192.154 151.329 192.151 151.814 192.129 152.236L192.018 155.052C191.863 159.406 191.702 163.908 190.556 168.808C188.99 175.505 185.944 177.982 183.811 178.069C179.558 178.243 175.197 163.577 173.961 159.078C170.751 147.394 166.09 137.54 160.104 129.79C156.129 124.626 147.276 116.965 141.887 116.217C141.73 116.197 141.578 116.146 141.44 116.067C141.303 115.987 141.182 115.882 141.086 115.756C140.989 115.629 140.919 115.485 140.878 115.332C140.838 115.178 140.828 115.018 140.85 114.861C140.872 114.704 140.925 114.552 141.006 114.416C141.086 114.279 141.193 114.16 141.321 114.065C141.448 113.97 141.593 113.901 141.746 113.862C141.9 113.823 142.061 113.815 142.218 113.839C149.052 114.788 158.478 123.742 162.006 128.324C168.18 136.322 172.981 146.455 176.274 158.442C179.973 171.907 183.163 175.465 183.815 175.68C184.624 175.634 186.927 173.774 188.216 168.262C189.309 163.589 189.466 159.207 189.617 154.967L189.73 152.118C189.75 151.725 189.75 151.282 189.751 150.809C189.756 148.66 189.762 145.986 191.295 144.382C193.178 142.42 196.391 143.005 198.738 143.431L199.592 143.581C201.265 143.869 203.032 144.055 204.827 144.245C209.601 144.749 214.537 145.271 218.505 147.646C224.785 151.402 224.709 157.407 224.648 162.232C224.635 163.284 224.621 164.298 224.677 165.24C225.338 176.873 225.028 180.31 224.085 183.614C223.992 183.93 223.899 184.346 223.788 184.833C223.356 186.724 222.638 189.873 220.951 192.071C221.151 195.321 218.27 199.11 216.809 200.25C216.599 200.412 216.34 200.5 216.075 200.5ZM215.633 192.062C215.884 192.125 216.143 192.148 216.401 192.131C217.11 192.094 217.787 191.825 218.327 191.363C217.725 190.247 217.153 190.46 216.907 190.552C216.1 190.853 215.584 191.784 215.628 192.063C215.63 192.062 215.632 192.062 215.634 192.062H215.633Z" fill="#97A1BA"/>
<path d="M40.0498 191.685C39.8156 191.685 39.5864 191.617 39.3906 191.488C39.1948 191.36 39.0408 191.177 38.9478 190.962C37.2283 186.994 38.2515 182.588 39.1536 178.7C39.7727 176.034 40.3575 173.515 40.0604 171.41C39.7809 169.365 39.1758 167.392 38.5351 165.305C37.7397 162.712 36.9176 160.032 36.7581 157.179C36.619 153.447 36.7233 149.709 37.0702 145.99C37.5113 140.661 38.1434 135.829 41.4091 130.802C43.7723 127.101 47.4214 124.85 50.9502 122.673C51.9171 122.077 52.884 121.48 53.8231 120.855C57.9548 118.101 63.902 114.771 68.7718 114.55C69.853 114.477 70.9325 114.714 71.8846 115.231C72.8367 115.749 73.6223 116.526 74.1499 117.472C75.6214 120.024 75.3823 123.516 73.5501 127.029C76.7817 128.386 78.745 132.071 79.9366 136.163C82.6142 130.975 86.2311 126.329 90.6037 122.461C93.3089 120.076 96.5375 118.621 99.6588 117.214C103.592 115.446 110.265 113.954 110.547 113.891C110.857 113.824 111.18 113.883 111.447 114.054C111.714 114.225 111.902 114.495 111.97 114.804C112.039 115.113 111.983 115.437 111.814 115.705C111.645 115.973 111.377 116.163 111.068 116.235C111.001 116.249 104.352 117.737 100.77 119.348C97.6848 120.737 94.624 122.116 92.1877 124.264C87.3068 128.586 83.4252 133.919 80.8126 139.893C81.4751 143.623 81.7916 147.406 81.7579 151.194L81.7394 151.612C81.5754 155.409 81.2342 163.308 77.2407 164.945C75.8594 165.514 74.7509 165.494 73.9479 164.887C72.6727 163.924 72.7735 162.026 72.9875 160.165C73.3261 157.069 74.1712 153.888 74.9886 150.808C75.3559 149.424 75.7195 148.057 76.0292 146.722C76.5897 144.294 77.3566 141.919 78.3218 139.622C77.23 134.398 75.1662 129.511 71.5562 128.937C71.3592 128.905 71.1731 128.826 71.0146 128.705C70.8562 128.583 70.7304 128.425 70.6487 128.243C70.567 128.061 70.532 127.861 70.5467 127.662C70.5614 127.463 70.6254 127.271 70.733 127.103C73.1405 123.348 73.0033 120.284 72.0707 118.669C71.7607 118.106 71.2951 117.644 70.7294 117.338C70.1637 117.033 69.5219 116.896 68.8809 116.946C64.3352 117.152 58.33 120.734 55.1553 122.851C54.1928 123.493 53.2023 124.104 52.211 124.715C48.7601 126.844 45.5007 128.855 43.4276 132.102C40.4614 136.669 39.8783 141.187 39.4626 146.2C39.1251 149.812 39.023 153.441 39.157 157.066C39.2993 159.604 40.0433 162.031 40.8311 164.6C41.5412 166.713 42.0791 168.88 42.4394 171.08C42.7982 173.623 42.165 176.353 41.4931 179.243C40.6356 182.941 39.7466 186.765 41.1501 190.007C41.2294 190.189 41.2619 190.389 41.2449 190.587C41.2279 190.786 41.1618 190.977 41.0526 191.143C40.9434 191.31 40.7945 191.446 40.6193 191.541C40.4441 191.635 40.2482 191.685 40.0491 191.685H40.0498ZM79.0825 144.569C78.8114 145.462 78.5723 146.359 78.3653 147.261C78.0494 148.623 77.6794 150.016 77.3058 151.424C76.5115 154.416 75.69 157.51 75.3703 160.431C75.1494 162.363 75.3158 162.855 75.4046 162.98C75.723 162.942 76.0336 162.855 76.3259 162.724C78.8984 161.669 79.2297 154.022 79.3381 151.508L79.3566 151.088C79.4159 148.911 79.3243 146.733 79.0825 144.569Z" fill="#97A1BA"/>
<path d="M219.093 150.32C218.775 150.32 218.469 150.193 218.244 149.968C218.019 149.743 217.892 149.438 217.892 149.119V141.642C217.892 141.179 217.915 140.682 217.938 140.167C218.019 138.418 218.11 136.435 217.175 135.683C215.462 134.306 212.476 133.506 208.044 133.236C207.025 133.174 205.979 133.082 204.936 132.991C201.112 132.654 197.158 132.307 195.529 133.624C194.31 134.609 194.182 139.84 194.763 144.121C194.805 144.436 194.72 144.755 194.527 145.007C194.335 145.259 194.05 145.425 193.735 145.468C193.42 145.511 193.102 145.427 192.848 145.236C192.595 145.044 192.428 144.76 192.384 144.445C192.151 142.735 191.136 134.087 194.02 131.756C196.403 129.83 200.65 130.204 205.146 130.599C206.167 130.689 207.192 130.779 208.189 130.839C213.133 131.14 216.564 132.112 218.678 133.812C220.563 135.327 220.437 138.071 220.336 140.277C220.314 140.751 220.293 141.213 220.293 141.641V149.119C220.293 149.276 220.262 149.433 220.202 149.578C220.141 149.724 220.053 149.856 219.942 149.968C219.83 150.079 219.698 150.168 219.552 150.228C219.407 150.289 219.251 150.32 219.093 150.32Z" fill="#97A1BA"/>
<path d="M195.118 128.06C194.908 128.06 194.703 128.005 194.521 127.9C192.735 126.85 191.176 125.456 189.933 123.799C188.691 122.141 187.79 120.253 187.284 118.244C186.318 114.5 186.812 110.748 188.672 107.68C190.894 104.061 197.022 100.117 202.268 100.237C205.288 100.306 207.627 101.684 209.031 104.224C210.431 106.779 209.567 108.432 208.928 109.191C207.701 110.646 205.385 111.245 203.191 111.352C204.525 113.318 205.248 115.634 205.27 118.01C205.27 118.328 205.144 118.634 204.919 118.859C204.694 119.084 204.388 119.21 204.07 119.21C203.751 119.21 203.446 119.084 203.221 118.859C202.996 118.634 202.869 118.328 202.869 118.01C202.869 114.872 201.029 111.719 199.419 111.037C199.222 110.988 199.042 110.934 198.877 110.879C198.591 110.78 198.352 110.577 198.209 110.31C198.067 110.043 198.03 109.732 198.107 109.44C198.183 109.147 198.368 108.894 198.623 108.731C198.879 108.569 199.186 108.509 199.484 108.563C199.71 108.605 199.933 108.667 200.148 108.748C202.235 109.239 205.959 108.985 207.091 107.643C207.269 107.432 207.743 106.87 206.927 105.382C205.948 103.611 204.361 102.686 202.213 102.638C197.977 102.541 192.556 105.942 190.723 108.931C189.203 111.435 188.807 114.533 189.609 117.646C190.487 121.068 192.682 124.006 195.715 125.818C195.944 125.95 196.123 126.154 196.225 126.398C196.326 126.642 196.344 126.913 196.276 127.168C196.208 127.424 196.058 127.649 195.848 127.811C195.639 127.972 195.382 128.059 195.118 128.06Z" fill="#97A1BA"/>
<path d="M207.911 114.38C207.52 114.381 207.129 114.333 206.749 114.237C206.017 114.043 205.351 113.656 204.821 113.115C204.29 112.575 203.916 111.902 203.736 111.166C203.692 111.014 203.678 110.855 203.696 110.697C203.714 110.54 203.763 110.388 203.84 110.249C203.917 110.111 204.021 109.989 204.145 109.891C204.27 109.793 204.412 109.72 204.564 109.678C204.717 109.635 204.876 109.623 205.034 109.642C205.191 109.661 205.343 109.711 205.481 109.789C205.618 109.867 205.739 109.971 205.837 110.096C205.934 110.221 206.005 110.364 206.047 110.517C206.112 110.847 206.268 111.152 206.497 111.399C206.726 111.645 207.019 111.822 207.344 111.911C208.299 112.155 209.951 111.774 211.717 109.967C214.821 106.805 219.468 100.926 215.725 97.0653C213.844 95.1119 211.264 94.7672 207.095 95.9125C203.836 96.8918 200.638 98.0641 197.519 99.423C197.374 99.4881 197.217 99.5237 197.059 99.5279C196.9 99.532 196.742 99.5046 196.594 99.4473C196.445 99.3899 196.31 99.3038 196.196 99.1938C196.081 99.0838 195.989 98.9521 195.926 98.8065C195.863 98.6608 195.829 98.504 195.827 98.3452C195.824 98.1864 195.854 98.0287 195.913 97.8813C195.972 97.7338 196.06 97.5996 196.171 97.4863C196.282 97.373 196.415 97.2829 196.561 97.2213C199.778 95.8207 203.076 94.6131 206.436 93.6048C209.872 92.6612 214.203 92.0202 217.455 95.3973C221.276 99.3397 219.848 105.113 213.434 111.648C211.707 113.411 209.718 114.38 207.911 114.38Z" fill="#97A1BA"/>
<path d="M189.493 109.126C189.174 109.126 188.869 109 188.644 108.775C188.419 108.55 188.292 108.244 188.292 107.926V107.553C188.292 96.6461 188.292 86.3408 191.219 76.0088L191.414 75.2587C191.944 73.1483 192.83 69.6161 195.351 68.4623C196.572 67.9032 197.945 67.9992 199.43 68.7473C202.166 70.1323 201.835 75.0159 201.214 80.3285C201.124 81.0985 201.046 81.7615 201.015 82.2431C200.769 85.9608 200.743 93.6946 200.743 96.8474C200.743 97.1658 200.617 97.4712 200.391 97.6963C200.166 97.9215 199.861 98.0479 199.543 98.0479C199.224 98.0479 198.919 97.9215 198.694 97.6963C198.469 97.4712 198.342 97.1658 198.342 96.8474C198.342 93.671 198.369 85.874 198.619 82.0881C198.652 81.5777 198.733 80.8704 198.829 80.0496C199.098 77.7475 199.813 71.6319 198.349 70.8917C197.143 70.2843 196.547 70.5569 196.351 70.6468C194.879 71.3204 194.112 74.3762 193.744 75.8445L193.528 76.6701C190.693 86.676 190.694 96.8179 190.694 107.555V107.926C190.694 108.084 190.663 108.24 190.603 108.385C190.542 108.531 190.454 108.664 190.342 108.775C190.231 108.887 190.098 108.975 189.952 109.035C189.806 109.095 189.65 109.126 189.493 109.126Z" fill="#97A1BA"/>
<path d="M207.26 104.976C207.055 104.976 206.854 104.924 206.675 104.824C206.497 104.724 206.346 104.58 206.239 104.406C206.131 104.232 206.07 104.034 206.061 103.829C206.052 103.625 206.095 103.421 206.187 103.238C206.617 102.346 207.201 101.536 207.911 100.845C208.025 100.735 208.16 100.648 208.308 100.591C208.456 100.533 208.614 100.506 208.772 100.509C208.931 100.513 209.087 100.548 209.232 100.613C209.377 100.677 209.507 100.77 209.616 100.885C209.725 101.001 209.81 101.136 209.866 101.285C209.922 101.433 209.949 101.591 209.943 101.75C209.938 101.908 209.901 102.064 209.836 102.208C209.77 102.353 209.676 102.482 209.559 102.59C209.054 103.089 208.639 103.671 208.334 104.312C208.234 104.512 208.081 104.68 207.891 104.797C207.701 104.914 207.483 104.976 207.26 104.976Z" fill="#97A1BA"/>
<path d="M211.941 119.236C211.23 119.239 210.527 119.088 209.88 118.792C208.437 118.128 207.382 116.879 207.128 115.531C207.026 114.922 207.074 114.297 207.269 113.711C207.464 113.125 207.8 112.596 208.247 112.17C208.356 112.054 208.487 111.961 208.632 111.896C208.777 111.831 208.933 111.796 209.092 111.792C209.251 111.788 209.409 111.815 209.557 111.873C209.705 111.93 209.84 112.017 209.955 112.127C210.069 112.237 210.16 112.369 210.224 112.515C210.287 112.661 210.32 112.818 210.322 112.976C210.324 113.135 210.295 113.293 210.235 113.44C210.176 113.588 210.088 113.722 209.976 113.835C209.797 113.986 209.658 114.18 209.573 114.398C209.488 114.617 209.458 114.853 209.487 115.086C209.596 115.664 210.157 116.277 210.883 116.611C212.63 117.413 215.264 116.039 217.757 113.026C219.666 110.717 221.297 106.989 220.558 104.633C220.233 103.596 219.458 102.919 218.188 102.565C218.036 102.523 217.894 102.451 217.77 102.354C217.646 102.257 217.542 102.136 217.464 101.999C217.387 101.861 217.337 101.71 217.318 101.554C217.299 101.397 217.311 101.239 217.354 101.087C217.396 100.935 217.468 100.793 217.565 100.669C217.662 100.545 217.783 100.441 217.92 100.363C218.058 100.286 218.209 100.236 218.366 100.217C218.522 100.198 218.681 100.21 218.833 100.253C221.43 100.977 222.45 102.643 222.849 103.914C223.899 107.264 221.905 111.779 219.607 114.557C217.091 117.598 214.355 119.236 211.941 119.236Z" fill="#97A1BA"/>
<path d="M218.161 121.954C217.779 121.954 217.398 121.908 217.026 121.817C216.445 121.694 215.899 121.44 215.43 121.075C214.961 120.71 214.581 120.243 214.319 119.71C214.075 119.165 213.961 118.572 213.984 117.975C214.007 117.379 214.167 116.797 214.452 116.272C214.522 116.13 214.619 116.003 214.738 115.898C214.857 115.794 214.996 115.714 215.146 115.663C215.296 115.613 215.454 115.592 215.613 115.603C215.771 115.614 215.925 115.656 216.067 115.727C216.208 115.798 216.335 115.896 216.438 116.016C216.542 116.136 216.621 116.275 216.67 116.425C216.72 116.576 216.739 116.735 216.727 116.893C216.715 117.051 216.671 117.205 216.599 117.346C216.468 117.542 216.389 117.769 216.37 118.004C216.351 118.239 216.393 118.476 216.492 118.69C216.591 118.905 216.743 119.09 216.934 119.229C217.126 119.368 217.349 119.455 217.584 119.482C219.618 119.976 221.615 117.562 222.18 116.809C223.199 115.457 224.156 111.83 223.343 109.778C223.24 109.453 223.048 109.163 222.788 108.942C222.528 108.72 222.211 108.576 221.874 108.526C221.56 108.472 221.28 108.296 221.097 108.036C220.913 107.776 220.84 107.453 220.894 107.139C220.948 106.826 221.125 106.546 221.385 106.362C221.645 106.179 221.967 106.106 222.281 106.16C223.025 106.276 223.724 106.592 224.304 107.073C224.883 107.554 225.322 108.183 225.574 108.893C226.765 111.898 225.517 116.37 224.099 118.252C223.209 119.439 220.987 121.954 218.161 121.954Z" fill="#97A1BA"/>
<path d="M222.298 124.309C221.554 124.321 220.819 124.139 220.166 123.78C218.842 123.016 218.344 121.577 218.834 119.931C218.879 119.78 218.954 119.639 219.053 119.517C219.153 119.394 219.275 119.293 219.414 119.218C219.553 119.143 219.705 119.096 219.861 119.08C220.018 119.064 220.177 119.078 220.328 119.123C220.479 119.168 220.62 119.243 220.742 119.342C220.864 119.442 220.966 119.564 221.041 119.703C221.116 119.842 221.163 119.994 221.179 120.151C221.195 120.307 221.181 120.466 221.135 120.617C220.895 121.428 221.213 121.612 221.367 121.701C222.061 122.102 223.548 121.917 224.292 121.13C224.996 120.398 225.437 118.979 225.398 117.589C225.366 116.461 225.033 115.523 224.486 115.015C224.252 114.798 224.114 114.498 224.102 114.18C224.09 113.862 224.205 113.552 224.422 113.318C224.638 113.085 224.938 112.947 225.257 112.935C225.575 112.923 225.885 113.038 226.118 113.254C227.15 114.212 227.747 115.727 227.799 117.521C227.857 119.575 227.181 121.593 226.03 122.787C225.54 123.275 224.957 123.66 224.316 123.921C223.676 124.182 222.99 124.314 222.298 124.309Z" fill="#97A1BA"/>
<path d="M215.912 130.435C215.775 130.435 215.638 130.432 215.501 130.425C215.185 130.406 214.889 130.264 214.677 130.028C214.466 129.792 214.356 129.483 214.372 129.166C214.388 128.85 214.528 128.553 214.762 128.34C214.996 128.126 215.304 128.014 215.621 128.027C217.854 128.139 220.731 126.983 221.486 123.356C221.517 123.201 221.578 123.053 221.666 122.921C221.754 122.789 221.868 122.676 222 122.588C222.132 122.5 222.281 122.439 222.437 122.409C222.593 122.379 222.753 122.38 222.908 122.413C223.064 122.445 223.211 122.508 223.342 122.598C223.473 122.687 223.585 122.802 223.671 122.935C223.758 123.068 223.817 123.218 223.845 123.374C223.873 123.53 223.871 123.69 223.837 123.845C222.88 128.437 219.239 130.435 215.912 130.435Z" fill="#97A1BA"/>
<path d="M216.555 134.782C216.529 134.782 216.504 134.782 216.478 134.78C216.161 134.76 215.864 134.614 215.654 134.375C215.444 134.136 215.337 133.824 215.357 133.506L215.631 129.15C215.651 128.833 215.797 128.536 216.035 128.325C216.274 128.115 216.587 128.008 216.905 128.028C217.222 128.048 217.519 128.193 217.73 128.432C217.94 128.671 218.047 128.983 218.027 129.301L217.753 133.657C217.734 133.962 217.599 134.248 217.376 134.457C217.154 134.666 216.86 134.782 216.555 134.782Z" fill="#97A1BA"/>
<path d="M44.646 129.912C44.387 129.912 44.1351 129.828 43.9277 129.673C43.7203 129.518 43.5686 129.3 43.4953 129.051C38.7671 113.048 40.5229 112.045 41.2727 111.616C42.907 110.682 50.5431 106.651 54.9009 104.578C55.2456 104.414 55.71 104.177 56.2516 103.9C61.1465 101.4 64.1188 100.172 65.8057 100.841C67.4521 101.493 68.8583 106.446 69.9847 115.564C70.022 115.879 69.9331 116.196 69.7373 116.446C69.5415 116.695 69.2548 116.857 68.9399 116.896C68.625 116.935 68.3075 116.848 68.0567 116.653C67.806 116.459 67.6425 116.173 67.6019 115.858C66.916 110.326 65.6126 103.831 64.763 102.98C63.8204 102.73 58.9455 105.22 57.3433 106.038C56.7764 106.327 56.2907 106.575 55.9312 106.746C51.8084 108.707 44.7294 112.435 42.7084 113.563C42.3932 115.19 44.0266 122.374 45.7978 128.37C45.8509 128.549 45.8615 128.738 45.8286 128.922C45.7958 129.106 45.7204 129.28 45.6086 129.43C45.4967 129.579 45.3515 129.701 45.1844 129.785C45.0173 129.868 44.8329 129.912 44.646 129.912Z" fill="#97A1BA"/>
<path d="M41.9021 113.894C41.7926 113.894 41.6837 113.879 41.5783 113.849C37.8946 112.82 36.6392 107.615 35.9655 104.818L35.8654 104.407C34.8364 100.329 33.5852 96.9473 32.2523 94.6352C30.6996 91.9564 27.3108 90.7816 23.7234 89.5376C21.7234 88.844 19.6551 88.1268 17.934 87.1123C15.9724 85.9378 15.1012 84.6132 15.3379 83.1716C15.8801 79.8655 22.4907 78.264 23.8098 77.9766C25.1818 77.6782 26.5013 77.3427 27.8067 77.0107C35.2871 75.1078 42.359 73.3095 56.0695 78.7747C60.0547 76.418 63.1009 74.6931 66.1683 73.0491C66.7551 72.736 67.3859 72.323 68.0482 71.8915C70.8234 70.0833 75.0175 67.351 78.4543 71.0625C78.7503 71.3729 78.9797 71.7405 79.1285 72.1428C79.2772 72.545 79.3422 72.9735 79.3194 73.4017C79.1876 75.8559 76.3648 78.3337 73.0961 81.2031C71.6277 82.4921 70.1093 83.825 68.9191 85.1105C67.2658 86.9174 67.2068 90.5374 67.1496 94.038C67.1067 96.6719 67.0621 99.3956 66.3264 101.528C66.2225 101.829 66.0032 102.076 65.7169 102.215C65.4306 102.355 65.1007 102.374 64.7997 102.271C64.4987 102.167 64.2514 101.947 64.1121 101.661C63.9727 101.375 63.9529 101.045 64.0568 100.744C64.668 98.9733 64.7085 96.557 64.7493 93.9989C64.8138 90.0507 64.8803 85.9677 67.1527 83.4844C68.432 82.1028 69.9978 80.7281 71.5121 79.399C74.0115 77.2038 76.8443 74.7185 76.9218 73.2731C76.929 73.1647 76.9118 73.0561 76.8716 72.9552C76.8314 72.8543 76.7691 72.7637 76.6893 72.69C74.775 70.6228 72.5438 71.8281 69.3588 73.9032C68.6334 74.3758 67.9405 74.8248 67.3008 75.1668C64.1367 76.8608 60.9897 78.6482 56.7839 81.1424C56.6245 81.2369 56.4454 81.2932 56.2605 81.3069C56.0757 81.3206 55.8902 81.2913 55.7186 81.2213C42.3761 75.7821 35.5872 77.5088 28.4008 79.3373C27.0686 79.6761 25.723 80.0181 24.3223 80.3223C20.9609 81.0543 17.8712 82.5672 17.7086 83.5599C17.6661 83.8192 18.0211 84.3649 19.1619 85.0478C20.6711 85.9365 22.5356 86.5837 24.5126 87.2687C28.3569 88.6015 32.3329 89.9783 34.3336 93.433C35.7971 95.9711 37.0967 99.4673 38.1974 103.826L38.302 104.257C38.7805 106.241 39.9007 110.888 42.2273 111.538C42.507 111.616 42.749 111.793 42.9085 112.035C43.0681 112.278 43.1343 112.57 43.095 112.858C43.0556 113.145 42.9134 113.409 42.6945 113.6C42.4757 113.79 42.1952 113.896 41.9048 113.895L41.9021 113.894Z" fill="#97A1BA"/>
<path d="M30.4803 86.0085C30.2522 86.0086 30.029 85.9433 29.8368 85.8205C28.0875 84.7072 20.721 82.3271 18.1873 83.0471C17.8811 83.1341 17.5528 83.0959 17.2746 82.9408C16.9965 82.7858 16.7914 82.5266 16.7044 82.2203C16.6174 81.914 16.6556 81.5857 16.8107 81.3076C16.9657 81.0295 17.2249 80.8244 17.5312 80.7374C21.1542 79.7084 29.252 82.6022 31.1261 83.7948C31.3456 83.9343 31.5139 84.1413 31.6056 84.3847C31.6973 84.628 31.7075 84.8946 31.6347 85.1443C31.5618 85.3939 31.4099 85.6132 31.2017 85.769C30.9935 85.9249 30.7403 86.0089 30.4803 86.0085Z" fill="#97A1BA"/>
<path d="M35.6253 83.6761C35.4584 83.676 35.2935 83.6409 35.141 83.5732L34.3665 83.2303C31.8939 82.1299 28.5075 80.6235 25.6315 80.0891C25.4765 80.0604 25.3286 80.0013 25.1964 79.9154C25.0642 79.8296 24.9502 79.7185 24.8609 79.5885C24.6806 79.3261 24.612 79.0028 24.6701 78.6897C24.7281 78.3766 24.9082 78.0995 25.1706 77.9192C25.4331 77.7389 25.7564 77.6702 26.0695 77.7283C29.225 78.3138 32.7606 79.8891 35.3427 81.0368L36.1106 81.3777C36.3622 81.4892 36.5679 81.6837 36.6932 81.9287C36.8185 82.1737 36.8558 82.4543 36.7989 82.7236C36.742 82.9928 36.5943 83.2343 36.3806 83.4076C36.1669 83.581 35.9001 83.6757 35.6249 83.6758L35.6253 83.6761Z" fill="#97A1BA"/>
<path d="M42.7253 82.2012C42.5745 82.2012 42.4251 82.1727 42.2849 82.1172C41.1581 81.6713 40.0118 81.1044 38.858 80.5309C37.4188 79.7651 35.9218 79.1132 34.3809 78.5809C34.2289 78.5357 34.0873 78.4608 33.9644 78.3606C33.8415 78.2604 33.7397 78.1367 33.6648 77.9969C33.5899 77.8571 33.5435 77.7038 33.5282 77.5459C33.5129 77.3881 33.5291 77.2287 33.5758 77.0771C33.6224 76.9256 33.6986 76.7847 33.8001 76.6628C33.9015 76.5408 34.026 76.4401 34.1666 76.3666C34.3071 76.2931 34.4608 76.2481 34.6188 76.2343C34.7768 76.2206 34.936 76.2382 35.0871 76.2863C36.7538 76.8542 38.3723 77.5547 39.9271 78.381C41.0182 78.9236 42.101 79.4635 43.1667 79.884C43.4268 79.9865 43.6429 80.1767 43.7778 80.4216C43.9127 80.6665 43.9579 80.9508 43.9056 81.2254C43.8533 81.5001 43.7067 81.7478 43.4913 81.926C43.2758 82.1041 43.0049 82.2015 42.7253 82.2012Z" fill="#97A1BA"/>
<path d="M230.549 37.269C228.731 23.5835 221.151 14.1511 209.283 10.7555C202.732 8.90331 196.387 8.73181 190.865 10.3439C184.691 12.1275 179.751 15.9347 176.184 21.697C172.644 27.351 170.7 33.8579 170.559 40.5274C170.422 47.4902 172.377 54.0414 176.219 59.4607C180.232 65.1544 186.165 68.5158 192.888 68.8587C194.5 68.9273 196.112 68.9959 197.724 68.9959C202.869 68.9959 208.049 68.4129 212.645 66.1491C218.921 63.0621 223.209 59.3578 226.124 54.453C228.765 49.9941 231.338 43.1685 230.549 37.269Z" fill="#9E77ED"/>
<path d="M226.673 48.1076C226.539 48.1075 226.406 48.085 226.28 48.0411C223.956 47.2357 221.201 46.6482 218.537 46.0798C217.297 45.8154 216.054 45.5502 214.838 45.2621C210.885 44.3161 195.951 41.2189 195.802 41.1877C195.614 41.1488 195.438 41.0656 195.29 40.945C195.141 40.8244 195.023 40.6699 194.946 40.4945C194.764 40.0808 190.487 30.3247 189.183 26.5847C187.951 23.0251 184.702 14.4739 184.702 14.4739L186.946 13.6209C186.946 13.6209 190.213 22.2197 191.451 25.7972C192.549 28.9418 195.948 36.7871 196.896 38.9634C199.787 39.5643 211.821 42.0716 215.395 42.9267C216.591 43.21 217.816 43.4713 219.038 43.7317C221.774 44.3148 224.603 44.9184 227.067 45.7722C227.336 45.8648 227.563 46.0498 227.708 46.2942C227.853 46.5386 227.907 46.8266 227.86 47.1069C227.813 47.3872 227.667 47.6416 227.45 47.8249C227.233 48.0081 226.957 48.1083 226.673 48.1076Z" fill="#6941C6"/>
<path d="M196.215 40.6989C195.946 40.6992 195.685 40.609 195.473 40.4429C195.261 40.2767 195.111 40.0442 195.048 39.7828C194.984 39.5213 195.01 39.246 195.121 39.001C195.233 38.7561 195.424 38.5557 195.663 38.4321C195.91 38.3042 220.427 25.6147 223.916 23.1212C224.176 22.9361 224.498 22.8616 224.812 22.914C225.126 22.9665 225.407 23.1416 225.592 23.4009C225.777 23.6601 225.851 23.9823 225.799 24.2965C225.746 24.6107 225.571 24.8912 225.312 25.0762C221.683 27.6689 197.782 40.0407 196.766 40.5662C196.596 40.654 196.407 40.6995 196.215 40.6989Z" fill="#6941C6"/>
<path d="M166.992 26.0531H164.042C163.724 26.0531 163.419 25.9266 163.193 25.7015C162.968 25.4763 162.842 25.171 162.842 24.8526C162.842 24.5342 162.968 24.2289 163.193 24.0037C163.419 23.7786 163.724 23.6521 164.042 23.6521H166.992C167.31 23.6521 167.616 23.7786 167.841 24.0037C168.066 24.2289 168.193 24.5342 168.193 24.8526C168.193 25.171 168.066 25.4763 167.841 25.7015C167.616 25.9266 167.31 26.0531 166.992 26.0531Z" fill="#97A1BA"/>
<path d="M213.125 3.03816H213.075L209.714 2.90097C209.556 2.89457 209.401 2.85716 209.258 2.79088C209.115 2.72461 208.986 2.63076 208.879 2.51472C208.773 2.39867 208.69 2.26269 208.635 2.11457C208.581 1.96644 208.556 1.80906 208.563 1.65144C208.569 1.49374 208.607 1.33885 208.673 1.1956C208.739 1.05235 208.833 0.923575 208.949 0.816629C209.065 0.709684 209.201 0.626671 209.349 0.572341C209.497 0.518011 209.655 0.49343 209.813 0.500005L213.174 0.637202C213.492 0.64357 213.795 0.776156 214.016 1.00579C214.236 1.23543 214.357 1.5433 214.35 1.86169C214.344 2.18008 214.211 2.4829 213.982 2.70353C213.752 2.92416 213.444 3.04453 213.126 3.03816H213.125Z" fill="#97A1BA"/>
<path d="M236.174 35.5883C235.862 35.5884 235.561 35.4667 235.337 35.2489C235.113 35.0311 234.983 34.7345 234.974 34.4221C234.969 34.2645 234.996 34.1075 235.052 33.96C235.108 33.8126 235.192 33.6778 235.301 33.5631C235.409 33.4484 235.539 33.3562 235.683 33.2917C235.827 33.2273 235.982 33.1918 236.14 33.1874L239.707 33.0845C239.865 33.0799 240.022 33.1064 240.169 33.1626C240.316 33.2187 240.451 33.3034 240.566 33.4117C240.681 33.52 240.773 33.6498 240.837 33.7938C240.902 33.9377 240.937 34.093 240.942 34.2506C240.946 34.4083 240.92 34.5653 240.864 34.7127C240.807 34.8601 240.723 34.995 240.614 35.1097C240.506 35.2244 240.376 35.3166 240.232 35.381C240.088 35.4455 239.933 35.481 239.776 35.4854L236.208 35.5883H236.174Z" fill="#97A1BA"/>
<path d="M121.134 122.503C116.322 122.503 111.671 118.961 109.737 115.628C109.617 115.422 109.562 115.184 109.578 114.946C109.594 114.708 109.681 114.48 109.827 114.291C112.495 110.857 113.154 106.115 113.791 101.528L113.874 100.936C114.093 99.4011 114.219 97.8614 114.345 96.3261C114.476 94.7309 114.608 93.1401 114.835 91.5664C115.031 90.2802 115.23 87.9361 115.345 86.462C113.512 86.4345 110.443 86.0658 108.788 84.0723C107.793 82.8749 107.465 81.3284 107.812 79.4779C108.456 75.9879 112.159 72.0812 116.15 72.0812C116.357 72.0818 116.563 72.0932 116.768 72.1155C116.816 71.6717 116.864 71.2286 116.909 70.7861C117.583 64.3721 118.281 57.7413 124.85 53.611C126.452 52.5795 128.317 52.0297 130.222 52.027C136.471 52.027 142.487 57.7893 146.879 61.9965L148.127 63.1864C152.016 66.89 155.574 70.9252 158.763 75.246C158.888 75.4143 158.966 75.6122 158.991 75.8202C159.016 76.0282 158.985 76.239 158.903 76.4317C158.821 76.6244 158.69 76.7923 158.523 76.9187C158.356 77.045 158.159 77.1255 157.951 77.1521C155.608 77.3875 153.252 77.4871 150.897 77.4505C148.02 77.4505 145.181 77.3654 143.637 77.3098L142.134 105.588C143.842 111.368 143.69 117.72 141.764 120.435C141.471 120.896 141.072 121.281 140.601 121.557C140.13 121.833 139.599 121.993 139.054 122.024C136.063 122.027 134.316 119.159 132.635 116.384C132.258 115.764 131.877 115.133 131.489 114.548C129.558 118.019 125.593 122.503 121.134 122.503ZM112.233 115.065C113.843 117.295 117.393 120.102 121.134 120.102C124.777 120.102 128.828 115.281 130.128 111.825C130.201 111.632 130.322 111.461 130.479 111.329C130.637 111.196 130.826 111.107 131.028 111.068C131.231 111.03 131.439 111.044 131.635 111.11C131.83 111.175 132.005 111.29 132.143 111.443C133.102 112.595 133.954 113.832 134.689 115.138C136.025 117.344 137.406 119.625 138.889 119.625C139.08 119.616 139.265 119.558 139.426 119.455C139.586 119.353 139.718 119.21 139.806 119.042C141.123 117.187 141.487 111.704 139.776 106.079C139.735 105.946 139.718 105.806 139.726 105.667L141.304 75.9982C141.32 75.6819 141.461 75.385 141.696 75.1723C141.931 74.9595 142.24 74.848 142.556 74.8622C142.565 74.8622 146.69 75.0471 150.898 75.0471C152.719 75.0471 154.265 75.0128 155.524 74.9459C152.767 71.3826 149.744 68.0339 146.48 64.9288L145.22 63.7283C141.121 59.8024 135.508 54.4259 130.224 54.4259C128.77 54.4249 127.348 54.8471 126.131 55.6408C120.548 59.1503 119.969 64.6578 119.299 71.0348C119.205 71.9334 119.11 72.8365 118.999 73.7389C118.977 73.9209 118.913 74.0953 118.813 74.2488C118.713 74.4023 118.579 74.5309 118.421 74.6246C118.264 74.7183 118.087 74.7747 117.904 74.7894C117.721 74.8042 117.538 74.7768 117.367 74.7096C116.98 74.5577 116.567 74.4804 116.151 74.4819C113.472 74.4819 110.624 77.47 110.173 79.9163C109.961 81.0509 110.112 81.9077 110.636 82.5381C111.778 83.9139 114.474 84.0624 115.579 84.0624C116.13 84.0624 116.496 84.0281 116.523 84.026C116.697 84.0088 116.872 84.0297 117.037 84.0872C117.202 84.1447 117.352 84.2375 117.477 84.3591C117.603 84.4806 117.7 84.6281 117.762 84.7911C117.825 84.9541 117.851 85.1288 117.839 85.303C117.826 85.4885 117.523 89.8693 117.211 91.9187C116.992 93.434 116.866 94.9761 116.739 96.5223C116.609 98.1052 116.477 99.6926 116.252 101.271L116.17 101.858C115.528 106.472 114.866 111.234 112.233 115.065Z" fill="#97A1BA"/>
<path d="M127.677 109.101C122.434 109.101 117.214 107.743 114.044 104.317C113.828 104.083 113.714 103.773 113.726 103.455C113.739 103.136 113.877 102.836 114.111 102.62C114.344 102.404 114.654 102.289 114.973 102.302C115.291 102.314 115.591 102.453 115.807 102.686C120.889 108.181 133.282 107.245 139.249 104.215C139.533 104.072 139.862 104.048 140.163 104.147C140.465 104.246 140.715 104.461 140.858 104.744C141.002 105.027 141.028 105.355 140.93 105.657C140.832 105.959 140.619 106.21 140.337 106.355C137.064 108.017 132.362 109.101 127.677 109.101Z" fill="#97A1BA"/>
<path d="M114.617 81.6182C114.434 81.6184 114.253 81.5768 114.089 81.4965C113.924 81.4162 113.781 81.2993 113.668 81.1548C113.549 81.0062 113.394 80.8891 113.219 80.8137C113.044 80.7382 112.852 80.7067 112.662 80.7219C112.505 80.7356 112.347 80.7181 112.197 80.6706C112.046 80.6232 111.907 80.5465 111.786 80.4451C111.542 80.2403 111.39 79.947 111.362 79.6298C111.335 79.3126 111.434 78.9975 111.639 78.7537C111.844 78.5099 112.137 78.3574 112.454 78.3299C113.044 78.2806 113.636 78.3782 114.179 78.6139C114.722 78.8496 115.197 79.2161 115.564 79.6806C115.702 79.8579 115.787 80.0704 115.81 80.2939C115.834 80.5173 115.794 80.7428 115.695 80.9447C115.596 81.1465 115.443 81.3167 115.252 81.4357C115.062 81.5548 114.842 81.618 114.617 81.6182Z" fill="#97A1BA"/>
<path d="M130.09 81.7993C129.341 81.8097 128.602 81.6176 127.953 81.2433C127.304 80.869 126.768 80.3264 126.401 79.6727C126.322 79.5356 126.27 79.3841 126.25 79.227C126.229 79.0699 126.24 78.9103 126.282 78.7574C126.323 78.6045 126.395 78.4614 126.492 78.3362C126.589 78.211 126.71 78.1062 126.847 78.028C126.985 77.9497 127.137 77.8995 127.294 77.8802C127.451 77.8609 127.611 77.8729 127.763 77.9155C127.916 77.9582 128.059 78.0306 128.183 78.1286C128.308 78.2266 128.411 78.3483 128.489 78.4866C129.098 79.5595 130.291 79.5276 131.13 79.1726C131.423 79.0488 131.753 79.0465 132.048 79.1664C132.343 79.2862 132.579 79.5183 132.703 79.8116C132.826 80.1049 132.829 80.4355 132.709 80.7304C132.589 81.0254 132.357 81.2607 132.064 81.3846C131.44 81.6535 130.769 81.7946 130.09 81.7993Z" fill="#97A1BA"/>
<path d="M129.434 70.9167C129.116 70.9167 128.811 70.7903 128.585 70.5651C128.36 70.34 128.234 70.0346 128.234 69.7163V68.4815C128.234 68.1631 128.36 67.8578 128.585 67.6326C128.811 67.4075 129.116 67.281 129.434 67.281C129.753 67.281 130.058 67.4075 130.283 67.6326C130.508 67.8578 130.635 68.1631 130.635 68.4815V69.7163C130.635 70.0346 130.508 70.34 130.283 70.5651C130.058 70.7903 129.753 70.9167 129.434 70.9167Z" fill="#97A1BA"/>
<path d="M135.951 70.0593C135.633 70.0593 135.327 69.9328 135.102 69.7076C134.877 69.4825 134.751 69.1772 134.751 68.8588V67.3839C134.751 67.0655 134.877 66.7602 135.102 66.535C135.327 66.3099 135.633 66.1834 135.951 66.1834C136.269 66.1834 136.575 66.3099 136.8 66.535C137.025 66.7602 137.152 67.0655 137.152 67.3839V68.8588C137.152 69.1772 137.025 69.4825 136.8 69.7076C136.575 69.9328 136.269 70.0593 135.951 70.0593Z" fill="#97A1BA"/>
<path d="M133.516 198.751C133.331 198.751 133.149 198.708 132.983 198.626C132.817 198.544 132.672 198.425 132.56 198.278C132.448 198.131 132.372 197.96 132.336 197.779C132.301 197.597 132.308 197.41 132.358 197.232C132.99 194.934 134.048 191.084 133.473 188.366C132.976 186.093 132.063 185.889 130.405 185.519C129.294 185.271 127.913 184.963 126.638 183.893C123.963 181.611 125.416 178.829 126.477 176.799C126.674 176.421 126.87 176.047 127.041 175.678C129.205 170.953 130.336 167.091 130.499 163.877C130.636 161.468 130.079 160.713 127.946 159.185C125.252 157.256 124.218 154.767 124.254 150.31C124.278 147.496 125.016 144.419 125.798 141.161C126.215 139.423 126.646 137.628 126.983 135.8C127.172 134.781 127.467 133.606 127.779 132.367C128.467 129.632 129.247 126.533 129.027 124.337C129.011 124.181 129.027 124.022 129.072 123.871C129.118 123.72 129.192 123.58 129.292 123.458C129.392 123.336 129.515 123.234 129.654 123.16C129.792 123.085 129.945 123.039 130.102 123.023C130.258 123.007 130.417 123.022 130.568 123.068C130.719 123.113 130.859 123.188 130.981 123.288C131.103 123.388 131.205 123.51 131.279 123.649C131.354 123.788 131.4 123.94 131.416 124.097C131.677 126.71 130.843 130.026 130.107 132.951C129.808 134.138 129.524 135.261 129.344 136.235C129.001 138.105 128.559 139.942 128.132 141.72C127.383 144.841 126.675 147.788 126.655 150.329C126.62 154.467 127.615 155.994 129.343 157.232C131.908 159.07 133.093 160.552 132.895 164.005C132.718 167.52 131.516 171.67 129.221 176.681C129.032 177.088 128.819 177.498 128.603 177.909C127.447 180.123 127.085 181.118 128.188 182.06C129.006 182.746 129.939 182.955 130.927 183.176C132.739 183.58 134.994 184.084 135.819 187.862C136.517 191.158 135.362 195.359 134.671 197.869C134.602 198.122 134.451 198.345 134.242 198.504C134.034 198.664 133.778 198.75 133.516 198.751Z" fill="#97A1BA"/>
<path d="M155.467 145.998C155.409 145.998 155.35 145.994 155.292 145.985C152.407 145.563 149.683 145.641 146.799 145.723C145.583 145.757 144.341 145.791 143.05 145.791C142.731 145.791 142.426 145.665 142.201 145.44C141.976 145.215 141.849 144.909 141.849 144.591C141.849 144.272 141.976 143.967 142.201 143.742C142.426 143.517 142.731 143.39 143.05 143.39C144.319 143.39 145.537 143.356 146.731 143.322C149.722 143.237 152.548 143.157 155.64 143.609C155.94 143.652 156.213 143.808 156.403 144.044C156.594 144.281 156.687 144.58 156.666 144.883C156.644 145.186 156.508 145.469 156.286 145.676C156.064 145.882 155.772 145.997 155.468 145.997L155.467 145.998Z" fill="#97A1BA"/>
<path d="M152.003 149.668C151.983 149.668 151.963 149.668 151.943 149.668C151.785 149.66 151.63 149.622 151.488 149.554C151.345 149.487 151.217 149.392 151.111 149.274C151.005 149.157 150.924 149.021 150.871 148.872C150.818 148.723 150.795 148.566 150.803 148.408L151.111 142.2C151.119 142.042 151.158 141.888 151.225 141.745C151.293 141.602 151.388 141.474 151.505 141.368C151.622 141.262 151.759 141.18 151.907 141.127C152.056 141.074 152.214 141.051 152.372 141.059C152.529 141.067 152.684 141.105 152.827 141.173C152.969 141.24 153.097 141.335 153.203 141.453C153.309 141.57 153.391 141.706 153.444 141.855C153.497 142.004 153.52 142.162 153.512 142.319L153.204 148.527C153.188 148.835 153.055 149.126 152.832 149.338C152.608 149.55 152.312 149.669 152.003 149.668Z" fill="#97A1BA"/>
<path d="M148.436 151.452C148.245 151.452 148.057 151.406 147.888 151.319C147.718 151.232 147.572 151.106 147.461 150.951C147.349 150.796 147.277 150.617 147.249 150.429C147.22 150.24 147.238 150.047 147.299 149.867C147.848 148.246 147.736 146.141 147.63 144.105C147.586 143.271 147.544 142.451 147.544 141.675C147.544 141.357 147.671 141.051 147.896 140.826C148.121 140.601 148.426 140.475 148.745 140.475C149.063 140.475 149.369 140.601 149.594 140.826C149.819 141.051 149.945 141.357 149.945 141.675C149.945 142.411 149.986 143.188 150.028 143.979C150.146 146.24 150.268 148.578 149.573 150.633C149.493 150.872 149.341 151.079 149.137 151.226C148.932 151.373 148.687 151.452 148.436 151.452Z" fill="#97A1BA"/>
<path d="M129.709 148.399C129.483 148.399 129.263 148.336 129.072 148.216C128.881 148.097 128.727 147.926 128.629 147.723C128.49 147.437 128.47 147.107 128.574 146.806C128.678 146.505 128.898 146.258 129.184 146.119L130.385 145.536C130.671 145.397 131.001 145.377 131.302 145.481C131.603 145.585 131.85 145.805 131.989 146.091C132.128 146.378 132.148 146.707 132.043 147.008C131.939 147.309 131.72 147.556 131.434 147.695L130.233 148.278C130.07 148.358 129.89 148.399 129.709 148.399Z" fill="#97A1BA"/>
<path d="M135.299 168.224C135.033 168.224 134.775 168.136 134.564 167.973C134.354 167.81 134.204 167.582 134.137 167.324C134.098 167.171 134.089 167.012 134.111 166.856C134.133 166.7 134.185 166.55 134.265 166.414C134.345 166.278 134.451 166.16 134.577 166.065C134.703 165.97 134.847 165.901 134.999 165.861L136.063 165.587C136.215 165.548 136.374 165.539 136.53 165.561C136.686 165.583 136.837 165.635 136.972 165.715C137.108 165.795 137.227 165.901 137.322 166.027C137.417 166.153 137.486 166.297 137.525 166.449C137.565 166.602 137.574 166.761 137.552 166.917C137.529 167.073 137.477 167.223 137.397 167.359C137.317 167.495 137.211 167.614 137.085 167.708C136.959 167.803 136.815 167.872 136.663 167.912L135.6 168.186C135.502 168.211 135.401 168.224 135.299 168.224Z" fill="#97A1BA"/>
<path d="M138.455 190.759C138.144 190.759 137.846 190.639 137.622 190.423C137.398 190.208 137.267 189.914 137.255 189.604C137.243 189.294 137.352 188.991 137.559 188.759C137.766 188.527 138.054 188.385 138.364 188.361L139.256 188.293C139.571 188.272 139.882 188.376 140.122 188.583C140.361 188.79 140.508 189.083 140.533 189.399C140.557 189.714 140.456 190.026 140.251 190.267C140.047 190.508 139.755 190.659 139.44 190.687L138.548 190.755C138.516 190.758 138.485 190.759 138.455 190.759Z" fill="#97A1BA"/>
<path d="M113.176 85.0138C113.589 86.5454 114.164 88.0287 114.891 89.4384C114.955 89.5412 115.039 89.6301 115.138 89.6998C115.237 89.7695 115.349 89.8187 115.468 89.8443C115.586 89.8699 115.708 89.8714 115.827 89.8488C115.946 89.8262 116.06 89.78 116.16 89.7128C116.195 89.6785 116.263 89.6442 116.298 89.6099C116.503 87.5519 116.675 85.1853 116.675 85.1853C115.506 85.2832 114.33 85.2255 113.176 85.0138Z" fill="#97A1BA"/>
<path d="M137.906 51.7777L130.326 50.9545C128.097 50.7144 125.833 50.3371 123.569 50.783C120.551 51.3661 116.229 53.7327 115.852 57.197C115.752 57.8706 115.911 58.5569 116.298 59.1177C116.344 59.1944 116.402 59.2638 116.469 59.3235C112.696 61.7931 112.525 67.6926 112.285 71.8771C112.216 72.8375 112.182 73.7979 112.182 74.7583C113.166 73.9451 114.35 73.4119 115.612 73.2148C116.138 74.3925 116.733 75.5378 117.395 76.6448C117.458 76.7439 117.54 76.8297 117.636 76.8972C117.732 76.9647 117.841 77.0126 117.956 77.0381C118.07 77.0635 118.189 77.0662 118.305 77.0458C118.42 77.0254 118.531 76.9823 118.63 76.9192C118.75 76.839 118.849 76.7323 118.92 76.6073C118.992 76.4824 119.033 76.3426 119.042 76.1989C118.991 74.048 119.499 71.9207 120.516 70.025C121.34 68.5158 122.437 67.1781 123.055 65.5317C123.672 63.8854 123.466 61.7931 122.369 60.4897C124.152 60.0438 125.901 58.569 127.033 57.2656C128.68 55.4134 130.12 54.2472 132.693 54.2472C134.682 54.2472 136.603 54.453 138.352 53.3897C139.141 52.9438 138.764 51.8806 137.906 51.7777Z" fill="#97A1BA"/>
<path d="M195.118 132.45C194.799 132.45 194.494 132.323 194.269 132.098C194.044 131.873 193.917 131.568 193.917 131.249V126.859C193.917 126.541 194.044 126.235 194.269 126.01C194.494 125.785 194.799 125.659 195.118 125.659C195.436 125.659 195.741 125.785 195.967 126.01C196.192 126.235 196.318 126.541 196.318 126.859V131.249C196.318 131.407 196.287 131.563 196.227 131.709C196.166 131.855 196.078 131.987 195.967 132.098C195.855 132.21 195.723 132.298 195.577 132.359C195.431 132.419 195.275 132.45 195.118 132.45Z" fill="#97A1BA"/>
<path d="M51.3 99.3853C51.0744 99.3851 50.8534 99.3215 50.6624 99.2016C50.4713 99.0816 50.3179 98.9103 50.2198 98.7072C50.1216 98.5041 50.0826 98.2775 50.1073 98.0532C50.1321 97.829 50.2195 97.6163 50.3595 97.4395C50.7955 96.8849 51.3598 96.4447 52.0037 96.1567C52.6477 95.8687 53.352 95.7416 54.056 95.7862C54.2145 95.795 54.3698 95.8351 54.5128 95.9043C54.6558 95.9734 54.7836 96.0703 54.8888 96.1892C54.9941 96.3081 55.0747 96.4468 55.126 96.5971C55.1774 96.7474 55.1983 96.9064 55.1878 97.0648C55.1772 97.2233 55.1353 97.3781 55.0644 97.5202C54.9936 97.6624 54.8953 97.7891 54.7752 97.893C54.655 97.9968 54.5155 98.0758 54.3646 98.1254C54.2137 98.175 54.0545 98.1941 53.8961 98.1817C53.5804 98.1629 53.2649 98.2212 52.9767 98.3514C52.6886 98.4817 52.4364 98.6801 52.2419 98.9294C52.1296 99.0717 51.9865 99.1866 51.8233 99.2656C51.6602 99.3445 51.4812 99.3854 51.3 99.3853Z" fill="#97A1BA"/>
<path d="M72.6686 28.6942C72.6384 28.4553 72.6269 28.2145 72.6343 27.9739C72.3942 24.1666 71.9826 17.7869 68.244 16.1749C62.5846 13.7396 57.9885 21.0454 56.7194 23.3434C55.5532 25.47 54.5928 27.9739 53.5639 30.6149C51.06 37.1318 48.4532 43.8545 42.7252 44.8492C38.3692 45.6038 36.9286 42.7569 34.905 38.0922C33.3958 34.5937 31.8523 30.9922 28.1137 30.0318C23.2088 28.7971 15.9031 31.1294 9.04318 49.2395C8.97007 49.4126 8.94633 49.6026 8.97458 49.7883L12.233 80.109C12.2651 80.4038 12.4059 80.676 12.6279 80.8726C12.8498 81.0691 13.137 81.176 13.4335 81.1723C13.5039 81.1777 13.5745 81.166 13.6393 81.138L74.0063 70.0936C74.2922 70.0403 74.5496 69.8866 74.732 69.6601C74.9144 69.4337 75.0098 69.1495 75.001 68.8588C75.001 68.5501 73.1831 35.9313 72.6686 28.6942Z" fill="#9E77ED"/>
<path d="M13.3991 81.2066C13.1029 81.2066 12.8171 81.097 12.5968 80.899C12.3764 80.701 12.2371 80.4286 12.2055 80.134C12.2055 80.134 7.06063 32.1186 5.82585 21.0066C5.48286 17.8727 4.896 10.2647 4.896 10.2647L7.28975 10.0805C7.28975 10.0832 7.87044 17.6336 8.21207 20.7428C9.32611 30.7682 13.6228 70.8354 14.4545 78.5796C20.2213 77.4655 43.7843 72.9284 51.999 71.5842C57.6742 70.6327 83.9376 67.02 84.2024 66.9836C84.3586 66.9622 84.5175 66.9717 84.67 67.0116C84.8225 67.0515 84.9657 67.1211 85.0913 67.2164C85.2169 67.3117 85.3225 67.4307 85.4021 67.5668C85.4817 67.7029 85.5337 67.8533 85.5552 68.0095C85.5767 68.1657 85.5671 68.3246 85.5272 68.4771C85.4873 68.6296 85.4177 68.7727 85.3224 68.8984C85.2272 69.024 85.1081 69.1296 84.972 69.2092C84.8359 69.2888 84.6855 69.3408 84.5293 69.3623C84.2649 69.3986 58.0368 73.0066 52.3907 73.9529C43.0784 75.4765 13.9212 81.1277 13.6276 81.1846C13.5523 81.1992 13.4758 81.2066 13.3991 81.2066Z" fill="#97A1BA"/>
<path d="M2.45762 15.626C2.23214 15.6259 2.01125 15.5622 1.82026 15.4424C1.62927 15.3225 1.4759 15.1513 1.37772 14.9483C1.27953 14.7453 1.2405 14.5188 1.2651 14.2946C1.2897 14.0705 1.37692 13.8578 1.51679 13.6809C2.69738 12.1879 5.19712 9.37494 5.19712 9.37494C5.38497 9.16362 5.64139 9.02539 5.92118 8.9846C6.20096 8.94382 6.48617 9.0031 6.72653 9.152L11.3227 11.9989C11.4567 12.0819 11.5731 12.1905 11.6651 12.3185C11.7572 12.4465 11.8231 12.5913 11.8592 12.7448C11.8953 12.8983 11.9007 13.0573 11.8753 13.2129C11.8499 13.3685 11.7941 13.5176 11.7111 13.6516C11.6281 13.7856 11.5195 13.902 11.3915 13.994C11.2635 14.0861 11.1187 14.152 10.9652 14.1881C10.8117 14.2242 10.6527 14.2297 10.4971 14.2043C10.3415 14.1789 10.1924 14.1231 10.0584 14.04L6.32283 11.7269C5.51542 12.6468 4.16951 14.1964 3.39914 15.1702C3.28687 15.3124 3.14382 15.4273 2.98074 15.5063C2.81767 15.5852 2.63881 15.6262 2.45762 15.626Z" fill="#97A1BA"/>
<path d="M83.2329 73.1805C83.0454 73.1806 82.8606 73.1368 82.6931 73.0526C82.5256 72.9685 82.3801 72.8462 82.2684 72.6957C82.1566 72.5452 82.0816 72.3706 82.0495 72.186C82.0173 72.0013 82.0289 71.8116 82.0832 71.6322C82.4759 70.4947 82.9935 69.4043 83.6266 68.381C83.6989 68.2541 83.7707 68.1274 83.8421 68.0009C83.6797 67.8832 83.5177 67.7662 83.356 67.6501C82.6179 67.1188 81.8908 66.594 81.1897 66.0037C80.9482 65.7978 80.7981 65.5047 80.7721 65.1885C80.7461 64.8722 80.8464 64.5585 81.051 64.316C81.2557 64.0735 81.548 63.9218 81.8641 63.8942C82.1802 63.8666 82.4944 63.9653 82.738 64.1687C83.3896 64.7199 84.0701 65.2069 84.7582 65.7022C85.2106 66.0277 85.6668 66.3563 86.123 66.7051C86.3464 66.8759 86.5027 67.1198 86.5647 67.3941C86.6267 67.6684 86.5904 67.9558 86.4622 68.206C86.2313 68.6567 85.9738 69.1109 85.7138 69.5681C85.174 70.4386 84.7275 71.3636 84.3819 72.3278C84.3073 72.5744 84.1552 72.7905 83.9483 72.9441C83.7414 73.0976 83.4906 73.1805 83.2329 73.1805Z" fill="#97A1BA"/>
<path d="M3.93253 29.3115H2.01176C1.69337 29.3115 1.38803 29.185 1.16289 28.9599C0.937758 28.7348 0.811279 28.4294 0.811279 28.111C0.811279 27.7926 0.937758 27.4873 1.16289 27.2622C1.38803 27.037 1.69337 26.9106 2.01176 26.9106H3.93253C4.25092 26.9106 4.55626 27.037 4.7814 27.2622C5.00653 27.4873 5.13301 27.7926 5.13301 28.111C5.13301 28.4294 5.00653 28.7348 4.7814 28.9599C4.55626 29.185 4.25092 29.3115 3.93253 29.3115Z" fill="#97A1BA"/>
<path d="M7.53397 61.0042H5.6132C5.29481 61.0042 4.98947 60.8777 4.76433 60.6526C4.5392 60.4275 4.41272 60.1221 4.41272 59.8037C4.41272 59.4853 4.5392 59.18 4.76433 58.9549C4.98947 58.7297 5.29481 58.6032 5.6132 58.6032H7.53397C7.85236 58.6032 8.1577 58.7297 8.38284 58.9549C8.60797 59.18 8.73445 59.4853 8.73445 59.8037C8.73445 60.1221 8.60797 60.4275 8.38284 60.6526C8.1577 60.8777 7.85236 61.0042 7.53397 61.0042Z" fill="#97A1BA"/>
<path d="M5.85331 43.7859H3.93254C3.61415 43.7859 3.3088 43.6594 3.08367 43.4343C2.85854 43.2091 2.73206 42.9038 2.73206 42.5854C2.73206 42.267 2.85854 41.9617 3.08367 41.7365C3.3088 41.5114 3.61415 41.3849 3.93254 41.3849H5.85331C6.17169 41.3849 6.47704 41.5114 6.70217 41.7365C6.92731 41.9617 7.05379 42.267 7.05379 42.5854C7.05379 42.9038 6.92731 43.2091 6.70217 43.4343C6.47704 43.6594 6.17169 43.7859 5.85331 43.7859Z" fill="#97A1BA"/>
<path d="M8.83744 75.2042H6.91667C6.59828 75.2042 6.29293 75.0777 6.0678 74.8526C5.84267 74.6274 5.71619 74.3221 5.71619 74.0037C5.71619 73.6853 5.84267 73.38 6.0678 73.1548C6.29293 72.9297 6.59828 72.8032 6.91667 72.8032H8.83744C9.15582 72.8032 9.46117 72.9297 9.6863 73.1548C9.91144 73.38 10.0379 73.6853 10.0379 74.0037C10.0379 74.3221 9.91144 74.6274 9.6863 74.8526C9.46117 75.0777 9.15582 75.2042 8.83744 75.2042Z" fill="#97A1BA"/>
</svg>
